<svg xmlns="http://www.w3.org/2000/svg" width="600" height="600" viewBox="0 0 600 600" version="1.1"><path d="M 43 294.500 L 43 332 53.500 332 L 64 332 64.015 317.250 C 64.024 309.137, 64.394 301.928, 64.837 301.229 C 65.457 300.253, 70.398 300.021, 86.072 300.229 L 106.500 300.500 106.775 316.250 L 107.051 332 118.025 332 L 129 332 129 294.500 L 129 257 118 257 L 107 257 107 273.020 L 107 289.040 85.750 288.770 L 64.500 288.500 64.225 272.750 L 63.949 257 53.475 257 L 43 257 43 294.500 M 173.500 258.653 C 159.051 261.729, 146.696 270.720, 141.764 281.749 C 138.475 289.102, 138.765 300.586, 142.444 308.734 C 149.563 324.500, 167.158 332.823, 191 331.703 C 211.679 330.732, 226.507 322.148, 233.275 307.233 C 236.491 300.145, 236.268 288.433, 232.771 280.804 C 224.519 262.801, 198.933 253.239, 173.500 258.653 M 246 294.500 L 246 332 257 332 L 268 332 268 319.135 C 268 307.693, 268.226 305.982, 270.043 303.672 C 273.954 298.700, 283.063 299.252, 288.214 304.773 C 289.614 306.273, 293.770 313.012, 297.450 319.750 L 304.140 332 318.048 332 L 331.955 332 326.327 323.250 C 323.232 318.438, 318.967 311.937, 316.850 308.805 C 314.732 305.673, 313 302.830, 313 302.487 C 313 302.145, 314.989 299.423, 317.420 296.438 C 322.966 289.630, 324.386 285.404, 323.758 277.576 C 322.959 267.618, 317.966 259.998, 310.917 257.976 C 309.034 257.436, 293.768 257, 276.757 257 L 246 257 246 294.500 M 343 294.500 L 343 332 353.500 332 L 364 332 364 294.500 L 364 257 353.500 257 L 343 257 343 294.500 M 375 294.461 L 375 332 407.343 332 C 439.270 332, 439.742 331.970, 444.093 329.673 C 455.882 323.449, 458.766 307.696, 449.950 297.680 L 445.947 293.133 449.113 288.642 C 453.573 282.314, 454.075 276.027, 450.707 268.670 C 448.890 264.701, 446.977 262.351, 443.914 260.323 L 439.650 257.500 407.325 257.211 L 375 256.921 375 294.461 M 475.093 293.235 C 467.719 313.181, 461.478 330.076, 461.225 330.780 C 460.861 331.787, 463.601 332, 474.105 331.780 L 487.446 331.500 489.044 327.170 C 489.923 324.788, 491.285 322.432, 492.071 321.935 C 493.806 320.837, 524.005 320.716, 525.711 321.800 C 526.377 322.224, 527.861 324.692, 529.008 327.285 L 531.094 332 544.047 332 C 551.171 332, 556.994 331.887, 556.987 331.750 C 556.980 331.613, 550.790 314.850, 543.230 294.500 L 529.486 257.500 508.993 257.235 L 488.500 256.971 475.093 293.235 M 179.384 269.913 C 171.401 273.538, 166.992 282.623, 167.010 295.409 C 167.019 302.386, 169.329 309.356, 173.212 314.122 C 181.147 323.862, 196.433 323.197, 203.639 312.799 C 206.581 308.555, 209 300.518, 209 294.992 C 209 289.466, 206.181 279.895, 203.342 275.785 C 198.383 268.604, 187.916 266.039, 179.384 269.913 M 274.388 268.980 C 270.998 270.350, 268 274.928, 268 278.735 C 268 281.360, 268.846 283.046, 271.489 285.689 L 274.978 289.178 286.077 288.839 C 296.813 288.511, 297.256 288.408, 299.589 285.694 C 301.270 283.738, 302 281.674, 302 278.878 C 302 270.454, 298.165 267.971, 285.300 268.063 C 280.460 268.098, 275.550 268.511, 274.388 268.980 M 400.538 270.250 C 395.510 274.646, 395.564 282.939, 400.647 286.937 C 402.916 288.722, 404.678 289, 413.701 289 C 419.438 289, 424.997 288.537, 426.055 287.970 C 430.595 285.541, 432.353 277.408, 429.296 272.973 C 426.177 268.448, 424.977 268.065, 413.806 268.032 C 404.120 268.003, 402.869 268.212, 400.538 270.250 M 507.486 275.250 C 502.493 289.086, 496 308.488, 496 309.576 C 496 310.732, 498.343 311, 508.441 311 C 515.284 311, 521.135 310.591, 521.444 310.090 C 522.195 308.875, 510.031 274, 508.856 274 C 508.351 274, 507.734 274.563, 507.486 275.250 M 400.400 303.400 C 396.501 307.299, 395.879 311.929, 398.704 316.027 C 401.873 320.625, 402.935 320.935, 415.614 320.968 C 427.360 320.999, 427.807 320.921, 430.339 318.388 C 433.754 314.973, 434.646 310.149, 432.594 306.182 C 429.772 300.724, 427.731 300, 415.177 300 L 403.800 300 400.400 303.400" stroke="none" fill="#fafafb" fill-rule="evenodd"/><path d="M 265.950 1.436 C 194.444 10.508, 133.012 40.940, 83.942 91.600 C 36.917 140.150, 7.726 203.146, 1.079 270.424 C -0.284 284.226, -0.315 315.594, 1.022 329.144 C 5.898 378.566, 23.235 426.694, 51.088 468.128 C 70.927 497.641, 102.359 529.073, 131.872 548.912 C 173.245 576.724, 221.506 594.110, 270.856 598.978 C 284.175 600.292, 315.825 600.292, 329.144 598.978 C 370.737 594.875, 413.212 581.371, 448.559 561.014 C 473.403 546.705, 491.209 533.001, 512.105 512.105 C 543.914 480.295, 565.835 446.463, 581.313 405.289 C 589.799 382.713, 597.095 351.620, 598.649 331.406 C 599.007 326.746, 599.683 322.696, 600.150 322.407 C 600.618 322.118, 601 311.532, 601 298.882 C 601 286.232, 600.615 276.120, 600.145 276.410 C 599.675 276.701, 598.999 273.154, 598.644 268.529 C 598.288 263.904, 596.862 253.905, 595.475 246.310 C 576.479 142.309, 504.539 56.133, 405.500 18.743 C 385.750 11.287, 366.261 6.288, 342 2.457 C 327.688 0.197, 280.691 -0.434, 265.950 1.436 M 43 294.500 L 43 332 53.500 332 L 64 332 64.015 317.250 C 64.024 309.137, 64.394 301.928, 64.837 301.229 C 65.457 300.253, 70.398 300.021, 86.072 300.229 L 106.500 300.500 106.775 316.250 L 107.051 332 118.025 332 L 129 332 129 294.500 L 129 257 118 257 L 107 257 107 273.020 L 107 289.040 85.750 288.770 L 64.500 288.500 64.225 272.750 L 63.949 257 53.475 257 L 43 257 43 294.500 M 173.500 258.653 C 159.051 261.729, 146.696 270.720, 141.764 281.749 C 138.475 289.102, 138.765 300.586, 142.444 308.734 C 149.563 324.500, 167.158 332.823, 191 331.703 C 211.679 330.732, 226.507 322.148, 233.275 307.233 C 236.491 300.145, 236.268 288.433, 232.771 280.804 C 224.519 262.801, 198.933 253.239, 173.500 258.653 M 246 294.500 L 246 332 257 332 L 268 332 268 319.135 C 268 307.693, 268.226 305.982, 270.043 303.672 C 273.954 298.700, 283.063 299.252, 288.214 304.773 C 289.614 306.273, 293.770 313.012, 297.450 319.750 L 304.140 332 318.048 332 L 331.955 332 326.327 323.250 C 323.232 318.438, 318.967 311.937, 316.850 308.805 C 314.732 305.673, 313 302.830, 313 302.487 C 313 302.145, 314.989 299.423, 317.420 296.438 C 322.966 289.630, 324.386 285.404, 323.758 277.576 C 322.959 267.618, 317.966 259.998, 310.917 257.976 C 309.034 257.436, 293.768 257, 276.757 257 L 246 257 246 294.500 M 343 294.500 L 343 332 353.500 332 L 364 332 364 294.500 L 364 257 353.500 257 L 343 257 343 294.500 M 375 294.461 L 375 332 407.343 332 C 439.270 332, 439.742 331.970, 444.093 329.673 C 455.882 323.449, 458.766 307.696, 449.950 297.680 L 445.947 293.133 449.113 288.642 C 453.573 282.314, 454.075 276.027, 450.707 268.670 C 448.890 264.701, 446.977 262.351, 443.914 260.323 L 439.650 257.500 407.325 257.211 L 375 256.921 375 294.461 M 475.093 293.235 C 467.719 313.181, 461.478 330.076, 461.225 330.780 C 460.861 331.787, 463.601 332, 474.105 331.780 L 487.446 331.500 489.044 327.170 C 489.923 324.788, 491.285 322.432, 492.071 321.935 C 493.806 320.837, 524.005 320.716, 525.711 321.800 C 526.377 322.224, 527.861 324.692, 529.008 327.285 L 531.094 332 544.047 332 C 551.171 332, 556.994 331.887, 556.987 331.750 C 556.980 331.613, 550.790 314.850, 543.230 294.500 L 529.486 257.500 508.993 257.235 L 488.500 256.971 475.093 293.235 M 179.384 269.913 C 171.401 273.538, 166.992 282.623, 167.010 295.409 C 167.019 302.386, 169.329 309.356, 173.212 314.122 C 181.147 323.862, 196.433 323.197, 203.639 312.799 C 206.581 308.555, 209 300.518, 209 294.992 C 209 289.466, 206.181 279.895, 203.342 275.785 C 198.383 268.604, 187.916 266.039, 179.384 269.913 M 274.388 268.980 C 270.998 270.350, 268 274.928, 268 278.735 C 268 281.360, 268.846 283.046, 271.489 285.689 L 274.978 289.178 286.077 288.839 C 296.813 288.511, 297.256 288.408, 299.589 285.694 C 301.270 283.738, 302 281.674, 302 278.878 C 302 270.454, 298.165 267.971, 285.300 268.063 C 280.460 268.098, 275.550 268.511, 274.388 268.980 M 400.538 270.250 C 395.510 274.646, 395.564 282.939, 400.647 286.937 C 402.916 288.722, 404.678 289, 413.701 289 C 419.438 289, 424.997 288.537, 426.055 287.970 C 430.595 285.541, 432.353 277.408, 429.296 272.973 C 426.177 268.448, 424.977 268.065, 413.806 268.032 C 404.120 268.003, 402.869 268.212, 400.538 270.250 M 507.486 275.250 C 502.493 289.086, 496 308.488, 496 309.576 C 496 310.732, 498.343 311, 508.441 311 C 515.284 311, 521.135 310.591, 521.444 310.090 C 522.195 308.875, 510.031 274, 508.856 274 C 508.351 274, 507.734 274.563, 507.486 275.250 M 0.430 300 C 0.430 312.925, 0.573 318.212, 0.747 311.750 C 0.921 305.288, 0.921 294.712, 0.747 288.250 C 0.573 281.788, 0.430 287.075, 0.430 300 M 400.400 303.400 C 396.501 307.299, 395.879 311.929, 398.704 316.027 C 401.873 320.625, 402.935 320.935, 415.614 320.968 C 427.360 320.999, 427.807 320.921, 430.339 318.388 C 433.754 314.973, 434.646 310.149, 432.594 306.182 C 429.772 300.724, 427.731 300, 415.177 300 L 403.800 300 400.400 303.400" stroke="none" fill="#2484c4" fill-rule="evenodd"/></svg>